<svg xmlns="http://www.w3.org/2000/svg" viewBox="0 0 80 80" fill="none">
  <!-- Shield outline -->
  <path d="M40 4 L72 14 L72 38 C72 56 58 70 40 76 C22 70 8 56 8 38 L8 14 Z" fill="#f97316" stroke="#ea580c" stroke-width="2"/>
  <!-- Inner shield -->
  <path d="M40 10 L66 18 L66 38 C66 52 54 64 40 70 C26 64 14 52 14 38 L14 18 Z" fill="#ffffff"/>
  <!-- Mountain icon -->
  <path d="M22 52 L32 32 L38 42 L46 24 L58 52 Z" fill="#1e3a5f"/>
  <!-- Snow cap on tallest peak -->
  <path d="M44 28 L46 24 L50 32 L48 33 L46 30 L44 28 Z" fill="#ffffff"/>
  <!-- Sun -->
  <circle cx="52" cy="22" r="4" fill="#f97316"/>
</svg>
